<svg width="40" height="40" viewBox="0 0 40 40" fill="none" xmlns="http://www.w3.org/2000/svg">
<path fill-rule="evenodd" clip-rule="evenodd" d="M21.6042 2.41479V1.52442e-05C31.8998 0.817082 40.0001 9.43092 40.0001 19.9367C40.0001 30.4424 31.8998 39.0563 21.6042 39.8733V37.4586C30.5693 36.6483 37.5941 29.1128 37.5941 19.9367C37.5941 10.7605 30.5693 3.22507 21.6042 2.41479ZM18.3961 37.4586C9.43091 36.6484 2.40602 29.1129 2.40602 19.9367C2.40602 10.7604 9.43091 3.22496 18.3961 2.41477V0C8.10037 0.816974 0 9.43085 0 19.9367C0 30.4425 8.10037 39.0564 18.3961 39.8733V37.4586ZM20 9.3602C17.3424 9.3602 15.188 11.5146 15.188 14.1722C15.188 16.8299 17.3424 18.9843 20 18.9843C22.6577 18.9843 24.8121 16.8299 24.8121 14.1722C24.8121 11.5146 22.6577 9.3602 20 9.3602ZM12.782 14.1722C12.782 10.1858 16.0136 6.95418 20 6.95418C23.9865 6.95418 27.2181 10.1858 27.2181 14.1722C27.2181 18.1587 23.9865 21.3903 20 21.3903C16.0136 21.3903 12.782 18.1587 12.782 14.1722ZM20 26.1522C16.2351 26.1522 13.183 29.2043 13.183 32.9693H10.777C10.777 27.8755 14.9063 23.7462 20 23.7462C25.0938 23.7462 29.2231 27.8755 29.2231 32.9693H26.8171C26.8171 29.2043 23.765 26.1522 20 26.1522Z" fill="black"/>
</svg>
