<svg width="36" height="40" viewBox="0 0 36 40" fill="none" xmlns="http://www.w3.org/2000/svg">
<path fill-rule="evenodd" clip-rule="evenodd" d="M12.9088 2.10883C14.2591 0.758569 16.0904 0 18 0C19.9096 0 21.7409 0.758569 23.0912 2.10883C24.4414 3.45909 25.2 5.29044 25.2 7.2H22.8C22.8 5.92696 22.2943 4.70606 21.3941 3.80589C20.4939 2.90571 19.273 2.4 18 2.4C16.727 2.4 15.5061 2.90571 14.6059 3.80589C13.7057 4.70606 13.2 5.92696 13.2 7.2H10.8C10.8 5.29044 11.5586 3.45909 12.9088 2.10883ZM36 10.4V12.8H0V10.4H36ZM28.7996 37.54L28.7926 16.0004L31.1926 15.9996L31.1998 38.2394C31.2001 39.1785 30.4389 39.94 29.4998 39.94H6.50001C5.56111 39.94 4.79999 39.1788 4.80001 38.2399L4.80037 16L7.20037 16L7.20002 37.54H28.7996ZM12.8004 30.94L12.8 18.94L15.2 18.94L15.2004 30.94L12.8004 30.94ZM20.7996 30.94L20.8 18.94L23.2 18.94L23.1996 30.94L20.7996 30.94Z" fill="#CE0037"/>
</svg>
