<svg width="29" height="29" viewBox="0 0 29 29" fill="none" xmlns="http://www.w3.org/2000/svg">
<path fill-rule="evenodd" clip-rule="evenodd" d="M20.7765 1.41088C22.6578 -0.470371 25.7079 -0.47037 27.5891 1.41089C29.4704 3.29214 29.4704 6.34226 27.5891 8.22351L27.3053 8.50737L25.6021 6.80422L25.886 6.52036C26.8266 5.57973 26.8266 4.05467 25.886 3.11404C24.9453 2.17342 23.4203 2.17341 22.4797 3.11404L22.1958 3.3979L20.4926 1.69474L20.7765 1.41088ZM2.52303 23.0707L19.9249 5.66878L18.2218 3.96562L0.621935 21.5655C0.313255 21.8741 0.13464 22.2894 0.122849 22.7258L0.00062954 27.2478C-0.0258058 28.2259 0.774102 29.0258 1.75222 28.9994L6.27425 28.8772C6.71063 28.8654 7.12588 28.6868 7.43456 28.3781L25.0344 10.7782L23.3312 9.07509L5.92935 26.477L2.42842 26.5716L2.52303 23.0707Z" fill="black"/>
</svg>
