<svg width="39" height="26" viewBox="0 0 39 26" fill="none" xmlns="http://www.w3.org/2000/svg">
<path fill-rule="evenodd" clip-rule="evenodd" d="M7.62421 2.40764C5.33293 2.40764 3.47548 4.26509 3.47548 6.55637C3.47548 8.84765 5.33293 10.7051 7.62421 10.7051C9.19568 10.7051 10.5631 9.83138 11.2671 8.54321C11.2463 8.78428 11.2357 9.02827 11.2357 9.27475C11.2357 10.1407 11.367 10.9761 11.6108 11.7619C10.5061 12.6092 9.12397 13.1127 7.62421 13.1127C4.00323 13.1127 1.06784 10.1774 1.06784 6.55637C1.06784 2.93539 4.00323 0 7.62421 0C10.1734 0 12.3827 1.4548 13.4673 3.57945C12.7347 4.3704 12.1527 5.30292 11.7669 6.33139C11.6501 4.14473 9.84001 2.40764 7.62421 2.40764ZM30.1816 13.1127C29.1742 13.1127 28.2199 12.8855 27.3671 12.4796C27.6801 11.7238 27.8857 10.9122 27.9649 10.0639C28.6062 10.47 29.3664 10.7051 30.1816 10.7051C32.4729 10.7051 34.3303 8.84765 34.3303 6.55637C34.3303 4.26509 32.4729 2.40764 30.1816 2.40764C28.6164 2.40764 27.2536 3.27444 26.5471 4.55421C26.0769 3.86536 25.5066 3.25025 24.8572 2.72978C26.0475 1.07647 27.9888 0 30.1816 0C33.8026 0 36.738 2.93539 36.738 6.55637C36.738 10.1774 33.8026 13.1127 30.1816 13.1127ZM0 23.2831C0 18.6768 3.73419 14.9426 8.34055 14.9426C10.5963 14.9426 12.6418 15.8381 14.1423 17.2913C13.4418 17.7144 12.7966 18.2198 12.22 18.7939C11.1793 17.8938 9.82293 17.3502 8.34055 17.3502C5.0639 17.3502 2.40764 20.0065 2.40764 23.2831H0ZM30.1812 17.3502C28.822 17.3502 27.5687 17.8072 26.5676 18.5771C25.9649 18.0125 25.2933 17.5206 24.5668 17.1153C26.0481 15.7661 28.018 14.9426 30.1812 14.9426C34.7875 14.9426 38.5217 18.6768 38.5217 23.2831H36.1141C36.1141 20.0065 33.4578 17.3502 30.1812 17.3502ZM15.4667 9.27496C15.4667 6.98368 17.3241 5.12623 19.6154 5.12623C21.9067 5.12623 23.7641 6.98368 23.7641 9.27496C23.7641 11.5662 21.9067 13.4237 19.6154 13.4237C17.3241 13.4237 15.4667 11.5662 15.4667 9.27496ZM19.6154 2.71859C15.9944 2.71859 13.059 5.65398 13.059 9.27496C13.059 12.8959 15.9944 15.8313 19.6154 15.8313C23.2364 15.8313 26.1718 12.8959 26.1718 9.27496C26.1718 5.65398 23.2364 2.71859 19.6154 2.71859ZM13.6837 26C13.6837 22.7233 16.3399 20.0671 19.6166 20.0671C22.8932 20.0671 25.5495 22.7233 25.5495 26H27.9571C27.9571 21.3936 24.2229 17.6594 19.6166 17.6594C15.0102 17.6594 11.276 21.3936 11.276 26H13.6837Z" fill="black"/>
</svg>
