<svg width="26" height="27" viewBox="0 0 26 27" fill="none" xmlns="http://www.w3.org/2000/svg">
<path fill-rule="evenodd" clip-rule="evenodd" d="M14.9459 1.34015C14.2677 -0.445734 11.7418 -0.447031 11.0617 1.33815L8.60918 7.77629L1.93134 8.25741C0.0582525 8.39236 -0.689017 10.7458 0.763127 11.9366L6.287 16.4663L3.4115 23.1441C2.60638 25.0138 4.69153 26.806 6.4191 25.7291L12.9892 21.6335L19.0393 25.6949C20.7075 26.8147 22.8356 25.1505 22.1509 23.2616L19.6958 16.4892L25.2367 11.9456C26.6912 10.7529 25.9387 8.39546 24.0621 8.26602L17.4016 7.80661L14.9459 1.34015ZM13.254 21.4684L13.2533 21.4688L13.254 21.4684ZM8.50003 8.06281L8.49973 8.0636L8.95048 8.23531L8.49973 8.0636C8.49983 8.06333 8.49993 8.06307 8.50003 8.06281ZM12.5596 1.90875C12.715 1.50071 13.2924 1.50101 13.4474 1.90921L16.0128 8.66438C16.168 9.07321 16.5469 9.35436 16.9832 9.38445L23.9518 9.86511C24.3807 9.8947 24.5527 10.4335 24.2203 10.7062L18.4155 15.4662C18.0481 15.7675 17.9106 16.2678 18.0726 16.7145L20.6439 23.8079C20.8004 24.2396 20.314 24.62 19.9327 24.3641L13.6234 20.1287C13.6234 20.1287 13.6234 20.1287 13.6234 20.1287C13.2571 19.8827 12.7805 19.8747 12.4061 20.1081L5.57116 24.3689C5.17629 24.615 4.69968 24.2054 4.88371 23.778L7.90281 16.7667C8.10036 16.3079 7.97039 15.7738 7.58416 15.4571L7.07596 16.0768L7.58415 15.4571L1.77951 10.6971C1.44759 10.4249 1.61839 9.88701 2.04653 9.85616L9.03101 9.35295C9.46554 9.32164 9.84253 9.04132 9.99762 8.6342L12.5596 1.90875Z" fill="black"/>
</svg>
