<svg width="36" height="40" viewBox="0 0 36 40" fill="none" xmlns="http://www.w3.org/2000/svg">
<path fill-rule="evenodd" clip-rule="evenodd" d="M17.9895 2.6382L2.39995 16.5906L2.40067 36.7693H10.8406V32.3695H13.2406V37.4693C13.2406 38.4081 12.4795 39.1692 11.5406 39.1692H1.70071C0.761877 39.1692 0.000788669 38.4082 0.000755172 37.4693L1.4658e-09 16.2775C-2.08596e-05 15.776 0.222628 15.3078 0.589728 14.99L16.8776 0.412637L16.891 0.401348C17.5313 -0.13896 18.4837 -0.138263 19.121 0.430943M17.9895 2.6382L33.5999 16.5815V36.7693H25.1568V32.3695H22.7568V37.4693C22.7568 38.4081 23.5179 39.1692 24.4568 39.1692H34.2998C35.2387 39.1692 35.9998 38.4081 35.9998 37.4693V16.2682C35.9998 15.784 35.7934 15.3229 35.4323 15.0004L19.121 0.430943M10.8406 28.4447C10.8406 24.4914 14.0454 21.2866 17.9987 21.2866C21.952 21.2866 25.1568 24.4914 25.1568 28.4447V29.1596H22.7568V28.4447C22.7568 25.8168 20.6265 23.6865 17.9987 23.6865C15.3709 23.6865 13.2406 25.8168 13.2406 28.4447V29.1596H10.8406V28.4447Z" fill="black"/>
</svg>
