<svg width="4" height="18" viewBox="0 0 4 18" fill="none" xmlns="http://www.w3.org/2000/svg">
<path d="M2 4C0.89543 4 -4.82823e-08 3.10457 0 2C4.82823e-08 0.89543 0.895431 -4.82823e-08 2 0C3.10457 4.82823e-08 4 0.895431 4 2C4 3.10457 3.10457 4 2 4Z" fill="black"/>
<path d="M2 11C0.89543 11 -4.82823e-08 10.1046 0 9C4.82823e-08 7.89543 0.895431 7 2 7C3.10457 7 4 7.89543 4 9C4 10.1046 3.10457 11 2 11Z" fill="black"/>
<path d="M2 18C0.89543 18 -4.82823e-08 17.1046 0 16C4.82823e-08 14.8954 0.895431 14 2 14C3.10457 14 4 14.8954 4 16C4 17.1046 3.10457 18 2 18Z" fill="black"/>
</svg>
