<svg width="39" height="29" viewBox="0 0 39 29" fill="none" xmlns="http://www.w3.org/2000/svg">
<path fill-rule="evenodd" clip-rule="evenodd" d="M0 1.72657C0 0.773012 0.773009 0 1.72657 0H37.2735C38.2271 0 39.0001 0.77301 39.0001 1.72657V6.90624H36.5626V2.43751H2.43751V6.90624H0V1.72657ZM36.5626 10.1563V26.4063H2.43751V10.1563H0V27.1173C0 28.0708 0.773011 28.8438 1.72657 28.8438H37.2735C38.2271 28.8438 39.0001 28.0708 39.0001 27.1173V10.1563H36.5626ZM33.7188 7.31009H5.28126V4.87258H33.7188V7.31009ZM33.7188 12.1899H5.28126V9.75236H33.7188V12.1899ZM28.0311 19.5001C28.0311 20.3976 28.7587 21.1251 29.6561 21.1251C30.5536 21.1251 31.2811 20.3976 31.2811 19.5001H33.7186C33.7186 21.7438 31.8998 23.5626 29.6561 23.5626C27.4125 23.5626 25.5936 21.7438 25.5936 19.5001H28.0311Z" fill="black"/>
</svg>
