<svg width="27" height="27" viewBox="0 0 27 27" fill="none" xmlns="http://www.w3.org/2000/svg">
<path fill-rule="evenodd" clip-rule="evenodd" d="M9.75672 0C4.28104 0.527994 0 5.14227 0 10.7564C0 16.3706 4.28104 20.9849 9.75672 21.5129V19.8828C5.17806 19.3618 1.62102 15.4745 1.62102 10.7564C1.62102 6.03836 5.17806 2.15108 9.75672 1.63002V0ZM11.9181 19.8757C16.4672 19.3271 19.9926 15.4535 19.9926 10.7564C19.9926 6.0594 16.4672 2.18577 11.9181 1.63719V0.00607748C17.3644 0.562424 21.6136 5.1632 21.6136 10.7564C21.6136 16.3497 17.3644 20.9504 11.9181 21.5068V19.8757ZM19.3946 20.4953L25.8539 26.9545L27.0001 25.8083L20.5409 19.3491L19.3946 20.4953Z" fill="black"/>
</svg>
