<svg width="39" height="40" viewBox="0 0 39 40" fill="none" xmlns="http://www.w3.org/2000/svg">
<path fill-rule="evenodd" clip-rule="evenodd" d="M15.7981 0C14.8593 0 14.0982 0.761098 14.0982 1.69996V5.04166C12.1875 5.70579 10.4442 6.72508 8.94706 8.01964L6.05014 6.3471C5.23706 5.87767 4.19738 6.15625 3.72795 6.96933L0.228035 13.0314C-0.241395 13.8444 0.037185 14.8841 0.850263 15.3535L3.74496 17.0248C3.6939 17.2933 3.64961 17.5641 3.61229 17.8371C3.51553 18.5448 3.46562 19.2669 3.46562 20C3.46562 20.7332 3.51553 21.4553 3.61229 22.163C3.64966 22.4364 3.69401 22.7075 3.74516 22.9764L0.851749 24.6469C0.0386746 25.1163 -0.239913 26.156 0.22952 26.9691L3.72943 33.0311C4.19887 33.8442 5.23855 34.1227 6.05162 33.6533L8.94787 31.9812C10.4448 33.2754 12.1878 34.2944 14.0982 34.9584V38.3C14.0982 39.2389 14.8593 40 15.7981 40H22.798C23.7368 40 24.4979 39.2389 24.4979 38.3L24.4979 34.9584C26.4087 34.2943 28.1521 33.2749 29.6493 31.9803L32.5464 33.6529C33.3595 34.1224 34.3992 33.8438 34.8686 33.0307L38.3685 26.9687C38.838 26.1556 38.5594 25.1159 37.7463 24.6465L34.8512 22.975C35.0346 22.0106 35.1305 21.016 35.1305 20C35.1305 18.9842 35.0347 17.9897 34.8513 17.0254L37.7478 15.3531C38.5609 14.8837 38.8395 13.844 38.37 13.0309L34.8701 6.96888C34.4007 6.1558 33.361 5.87722 32.5479 6.34665L29.6495 8.02004C28.1523 6.72529 26.4088 5.70586 24.4979 5.04166L24.4979 1.69996C24.4979 0.761101 23.7368 0 22.798 0H15.7981ZM16.4981 5.54308V2.39994H22.098L22.098 5.54308C22.098 6.31017 22.606 6.95701 23.3029 7.17439C25.2213 7.77272 26.9563 8.79043 28.4002 10.1216C28.9372 10.6166 29.7513 10.7325 30.4151 10.3492L33.1417 8.77505L35.9416 13.6247L33.2176 15.1974C32.5542 15.5804 32.2476 16.3425 32.4068 17.0544C32.6186 18.0012 32.7305 18.9869 32.7305 20C32.7305 21.0133 32.6186 21.999 32.4068 22.946C32.2475 23.6579 32.5541 24.42 33.2175 24.803L35.9401 26.3749L33.1402 31.2245L30.4149 29.6511C29.751 29.2678 28.937 29.3837 28.4 29.8787C26.9562 31.2098 25.2212 32.2274 23.3029 32.8257C22.606 33.0431 22.098 33.6899 22.098 34.457L22.098 37.6H16.4981V34.457C16.4981 33.6899 15.9901 33.0431 15.2932 32.8257C13.3753 32.2275 11.6406 31.2102 10.197 29.8795C9.65999 29.3846 8.84602 29.2687 8.18221 29.652L5.45785 31.2249L2.65792 26.3753L5.37889 24.8043C6.04241 24.4213 6.34892 23.6591 6.18961 22.9471C6.1081 22.5829 6.04138 22.2129 5.99011 21.838C5.90804 21.2376 5.86557 20.6241 5.86557 20C5.86557 19.376 5.90804 18.7625 5.99011 18.1621C6.04133 17.7875 6.10799 17.4178 6.1894 17.0539C6.34865 16.342 6.04213 15.5799 5.37866 15.1968L2.65644 13.6251L5.45637 8.7755L8.18143 10.3488C8.84528 10.7321 9.6593 10.6162 10.1963 10.1212C11.6401 8.79025 13.375 7.77267 15.2932 7.17439C15.9901 6.95701 16.4981 6.31017 16.4981 5.54308ZM20.9043 26.5472C23.8521 25.8274 26.0398 23.1689 26.0398 19.9995C26.0398 16.83 23.8521 14.1715 20.9043 13.4517V11C25.187 11.7584 28.4397 15.4991 28.4397 19.9995C28.4397 24.4999 25.187 28.2406 20.9043 28.9989V26.5472ZM17.7044 13.4496C14.7522 14.1663 12.5601 16.8269 12.5601 19.9995C12.5601 23.1721 14.7522 25.8327 17.7044 26.5493V29.0004C13.4173 28.2457 10.1602 24.5029 10.1602 19.9995C10.1602 15.496 13.4173 11.7533 17.7044 10.9985V13.4496Z" fill="black"/>
</svg>
